<?xml version="1.0" encoding="UTF-8" standalone="no"?><!DOCTYPE svg PUBLIC "-//W3C//DTD SVG 1.1//EN" "http://www.w3.org/Graphics/SVG/1.1/DTD/svg11.dtd"><svg width="100%" height="100%" viewBox="0 0 1012 638" version="1.1" xmlns="http://www.w3.org/2000/svg" xmlns:xlink="http://www.w3.org/1999/xlink" xml:space="preserve" xmlns:serif="http://www.serif.com/" style="fill-rule:evenodd;clip-rule:evenodd;stroke-linejoin:round;stroke-miterlimit:2;"><g><g><path d="M1011.024,38.268l0,561.26c0,21.121 -17.147,38.268 -38.268,38.268l-934.488,0c-21.121,0 -38.268,-17.147 -38.268,-38.268l0,-561.26c0,-21.121 17.147,-38.268 38.268,-38.268l934.488,0c21.121,0 38.268,17.147 38.268,38.268Z" style="fill:#111827;"/></g></g><g id="front"><g transform="matrix(1,0,-0.087489,1,20.334935,0)"><g transform="matrix(33.333333,0,0,33.333333,279.432797,470.304623)"><path d="M0.252,-0l0,-0.624l-0.225,0l0,-0.076l0.534,0l0,0.076l-0.225,0l0,0.624l-0.084,-0Z" style="fill:#f4f5f7;fill-rule:nonzero;"/></g><g transform="matrix(33.333333,0,0,33.333333,295.699464,470.304623)"><path d="M0.309,0.014c-0.049,0 -0.093,-0.01 -0.131,-0.031c-0.038,-0.021 -0.067,-0.05 -0.088,-0.088c-0.021,-0.038 -0.032,-0.082 -0.032,-0.133l0,-0.013c0,-0.051 0.011,-0.095 0.032,-0.133c0.021,-0.038 0.05,-0.067 0.088,-0.088c0.038,-0.021 0.081,-0.031 0.131,-0.031c0.049,0 0.093,0.01 0.131,0.031c0.038,0.021 0.067,0.05 0.088,0.088c0.021,0.038 0.032,0.082 0.032,0.133l0,0.013c0,0.051 -0.011,0.095 -0.032,0.133c-0.021,0.038 -0.05,0.067 -0.088,0.088c-0.038,0.021 -0.081,0.031 -0.131,0.031Zm0,-0.071c0.052,-0 0.093,-0.017 0.124,-0.05c0.031,-0.033 0.047,-0.078 0.047,-0.134l0,-0.009c0,-0.056 -0.015,-0.101 -0.046,-0.134c-0.031,-0.033 -0.072,-0.05 -0.125,-0.05c-0.051,0 -0.093,0.017 -0.124,0.05c-0.031,0.033 -0.047,0.078 -0.047,0.134l0,0.009c0,0.056 0.016,0.101 0.047,0.134c0.031,0.033 0.073,0.05 0.124,0.05Z" style="fill:#f4f5f7;fill-rule:nonzero;"/></g><g transform="matrix(33.333333,0,0,33.333333,316.288803,470.304623)"><path d="M0.27,0.009c-0.036,0 -0.068,-0.008 -0.098,-0.023c-0.029,-0.016 -0.053,-0.038 -0.07,-0.069c-0.017,-0.03 -0.026,-0.067 -0.026,-0.11l0,-0.296l0.079,0l0,0.29c0,0.048 0.012,0.083 0.036,0.106c0.024,0.022 0.057,0.033 0.099,0.033c0.047,0 0.085,-0.015 0.115,-0.046c0.03,-0.031 0.045,-0.077 0.045,-0.137l0,-0.246l0.079,0l0,0.489l-0.077,-0l0,-0.083l-0.014,0c-0.011,0.023 -0.029,0.044 -0.055,0.064c-0.026,0.019 -0.064,0.029 -0.113,0.029Z" style="fill:#f4f5f7;fill-rule:nonzero;"/></g><g transform="matrix(33.333333,0,0,33.333333,336.703799,470.304623)"><path d="M0.308,0.014c-0.048,0 -0.09,-0.01 -0.128,-0.03c-0.038,-0.02 -0.067,-0.049 -0.089,-0.087c-0.022,-0.038 -0.033,-0.083 -0.033,-0.135l0,-0.011c0,-0.053 0.011,-0.098 0.033,-0.136c0.022,-0.038 0.051,-0.067 0.089,-0.087c0.038,-0.02 0.08,-0.03 0.128,-0.03c0.047,0 0.087,0.009 0.12,0.026c0.033,0.017 0.059,0.04 0.078,0.069c0.019,0.029 0.031,0.059 0.037,0.092l-0.077,0.016c-0.003,-0.024 -0.011,-0.046 -0.023,-0.066c-0.012,-0.02 -0.029,-0.036 -0.051,-0.048c-0.022,-0.012 -0.049,-0.018 -0.082,-0.018c-0.032,0 -0.062,0.007 -0.087,0.022c-0.026,0.015 -0.046,0.036 -0.061,0.063c-0.015,0.027 -0.022,0.06 -0.022,0.098l0,0.009c0,0.038 0.007,0.071 0.022,0.098c0.015,0.027 0.035,0.048 0.061,0.063c0.026,0.015 0.055,0.022 0.087,0.022c0.049,-0 0.086,-0.013 0.112,-0.038c0.026,-0.025 0.042,-0.057 0.048,-0.095l0.077,0.017c-0.007,0.033 -0.02,0.063 -0.04,0.092c-0.02,0.029 -0.046,0.051 -0.079,0.069c-0.033,0.017 -0.073,0.026 -0.12,0.026Z" style="fill:#f4f5f7;fill-rule:nonzero;"/></g><g transform="matrix(33.333333,0,0,33.333333,356.639478,470.304623)"><path d="M0.083,-0l0,-0.7l0.079,0l0,0.289l0.014,0c0.007,-0.014 0.018,-0.028 0.031,-0.042c0.013,-0.013 0.031,-0.024 0.053,-0.033c0.022,-0.008 0.049,-0.013 0.082,-0.013c0.036,0 0.069,0.008 0.098,0.023c0.029,0.016 0.052,0.038 0.07,0.068c0.017,0.03 0.026,0.067 0.026,0.11l0,0.296l-0.079,-0l0,-0.29c0,-0.049 -0.012,-0.084 -0.036,-0.106c-0.024,-0.022 -0.057,-0.033 -0.099,-0.033c-0.047,0 -0.085,0.015 -0.115,0.046c-0.03,0.031 -0.045,0.076 -0.045,0.137l0,0.246l-0.079,-0Z" style="fill:#f4f5f7;fill-rule:nonzero;"/></g><g transform="matrix(33.333333,0,0,33.333333,377.078142,470.304623)"><path d="M0.307,0.014c-0.05,0 -0.093,-0.011 -0.13,-0.032c-0.037,-0.021 -0.066,-0.051 -0.087,-0.089c-0.021,-0.038 -0.031,-0.082 -0.031,-0.132l0,-0.012c0,-0.051 0.01,-0.095 0.031,-0.133c0.021,-0.038 0.049,-0.067 0.086,-0.088c0.037,-0.021 0.079,-0.031 0.126,-0.031c0.046,0 0.087,0.01 0.122,0.03c0.035,0.02 0.063,0.048 0.083,0.084c0.02,0.036 0.03,0.08 0.03,0.129l0,0.035l-0.399,0c0.002,0.053 0.019,0.094 0.05,0.124c0.032,0.03 0.072,0.044 0.12,0.044c0.042,0 0.075,-0.01 0.098,-0.029c0.023,-0.019 0.04,-0.042 0.052,-0.069l0.068,0.033c-0.01,0.021 -0.024,0.041 -0.041,0.062c-0.018,0.021 -0.041,0.038 -0.069,0.052c-0.028,0.014 -0.065,0.021 -0.108,0.021Zm-0.168,-0.303l0.317,0c-0.003,-0.046 -0.018,-0.081 -0.046,-0.106c-0.028,-0.025 -0.064,-0.038 -0.109,-0.038c-0.044,0 -0.081,0.013 -0.109,0.038c-0.029,0.025 -0.046,0.061 -0.053,0.106Z" style="fill:#f4f5f7;fill-rule:nonzero;"/></g><g transform="matrix(33.333333,0,0,33.333333,396.208491,470.304623)"><path d="M0.061,-0l0,-0.102l0.311,-0.307l0,-0.012l-0.301,0l0,-0.069l0.384,0l0,0.102l-0.312,0.307l0,0.012l0.32,0l-0,0.069l-0.402,-0Z" style="fill:#f4f5f7;fill-rule:nonzero;"/></g><g transform="matrix(33.333333,0,0,33.333333,413.569827,470.304623)"><path d="M0.126,0.014c-0.02,0 -0.036,-0.006 -0.049,-0.019c-0.013,-0.013 -0.019,-0.029 -0.019,-0.049c0,-0.02 0.006,-0.036 0.019,-0.049c0.013,-0.013 0.029,-0.019 0.049,-0.019c0.02,0 0.036,0.006 0.049,0.019c0.013,0.013 0.019,0.029 0.019,0.049c0,0.02 -0.006,0.036 -0.019,0.049c-0.013,0.013 -0.029,0.019 -0.049,0.019Z" style="fill:#f4f5f7;fill-rule:nonzero;"/></g><g transform="matrix(33.333333,0,0,33.333333,420.888447,470.304623)"></g><g transform="matrix(33.333333,0,0,33.333333,429.449783,470.304623)"><path d="M0.08,-0l0,-0.7l0.267,0c0.042,0 0.08,0.008 0.113,0.024c0.033,0.016 0.059,0.039 0.079,0.07c0.019,0.03 0.029,0.066 0.029,0.109l0,0.013c0,0.042 -0.01,0.079 -0.029,0.109c-0.02,0.03 -0.046,0.054 -0.079,0.07c-0.033,0.016 -0.07,0.024 -0.112,0.024l-0.184,0l0,0.282l-0.084,-0Zm0.084,-0.358l0.175,0c0.045,0 0.08,-0.011 0.106,-0.034c0.026,-0.023 0.039,-0.054 0.039,-0.094l0,-0.01c0,-0.041 -0.013,-0.072 -0.039,-0.095c-0.026,-0.022 -0.061,-0.033 -0.107,-0.033l-0.175,0l0,0.266Z" style="fill:#f4f5f7;fill-rule:nonzero;"/></g><g transform="matrix(33.333333,0,0,33.333333,449.12178,470.304623)"><path d="M0.233,0.014c-0.034,0 -0.065,-0.006 -0.093,-0.018c-0.028,-0.012 -0.05,-0.029 -0.066,-0.052c-0.016,-0.023 -0.024,-0.051 -0.024,-0.083c0,-0.033 0.008,-0.061 0.024,-0.082c0.016,-0.022 0.038,-0.038 0.066,-0.049c0.028,-0.011 0.059,-0.016 0.093,-0.016l0.166,0l0,-0.036c0,-0.035 -0.01,-0.062 -0.031,-0.082c-0.02,-0.02 -0.051,-0.03 -0.091,-0.03c-0.039,0 -0.07,0.01 -0.092,0.029c-0.022,0.019 -0.037,0.044 -0.045,0.076l-0.075,-0.023c0.008,-0.028 0.021,-0.053 0.038,-0.075c0.017,-0.022 0.041,-0.04 0.07,-0.054c0.029,-0.013 0.064,-0.02 0.105,-0.02c0.062,0 0.111,0.016 0.146,0.048c0.035,0.032 0.052,0.078 0.052,0.136l0,0.221c0,0.02 0.009,0.03 0.028,0.03l0.045,0l0,0.067l-0.07,-0c-0.022,-0 -0.039,-0.006 -0.052,-0.018c-0.013,-0.012 -0.02,-0.029 -0.02,-0.05l0,-0.005l-0.013,0c-0.007,0.013 -0.017,0.026 -0.029,0.04c-0.012,0.014 -0.029,0.025 -0.051,0.034c-0.021,0.009 -0.049,0.014 -0.083,0.014Zm0.009,-0.068c0.047,0 0.085,-0.014 0.113,-0.042c0.029,-0.028 0.043,-0.066 0.043,-0.116l0,-0.011l-0.163,0c-0.031,0 -0.057,0.007 -0.077,0.02c-0.02,0.014 -0.03,0.034 -0.03,0.062c0,0.027 0.01,0.049 0.031,0.064c0.021,0.015 0.048,0.023 0.082,0.023Z" style="fill:#f4f5f7;fill-rule:nonzero;"/></g><g transform="matrix(33.333333,0,0,33.333333,468.293777,470.304623)"><path d="M0.083,-0l0,-0.489l0.077,0l0,0.06l0.014,0c0.009,-0.021 0.022,-0.037 0.04,-0.047c0.018,-0.01 0.042,-0.015 0.072,-0.015l0.058,0l0,0.072l-0.063,0c-0.035,0 -0.064,0.01 -0.085,0.029c-0.022,0.02 -0.032,0.05 -0.032,0.092l0,0.298l-0.079,-0Z" style="fill:#f4f5f7;fill-rule:nonzero;"/></g><g transform="matrix(33.333333,0,0,33.333333,480.854757,470.304623)"><path d="M0.263,-0c-0.028,-0 -0.049,-0.008 -0.065,-0.023c-0.015,-0.015 -0.023,-0.036 -0.023,-0.063l0,-0.334l-0.147,0l0,-0.069l0.147,0l0,-0.174l0.079,0l0,0.174l0.16,0l0,0.069l-0.16,0l0,0.322c0,0.02 0.01,0.03 0.029,0.03l0.109,0l0,0.069l-0.13,-0Z" style="fill:#f4f5f7;fill-rule:nonzero;"/></g><g transform="matrix(33.333333,0,0,33.333333,496.096762,470.304623)"><path d="M0.233,0.014c-0.034,0 -0.065,-0.006 -0.093,-0.018c-0.028,-0.012 -0.05,-0.029 -0.066,-0.052c-0.016,-0.023 -0.024,-0.051 -0.024,-0.083c0,-0.033 0.008,-0.061 0.024,-0.082c0.016,-0.022 0.038,-0.038 0.066,-0.049c0.028,-0.011 0.059,-0.016 0.093,-0.016l0.166,0l0,-0.036c0,-0.035 -0.01,-0.062 -0.031,-0.082c-0.02,-0.02 -0.051,-0.03 -0.091,-0.03c-0.039,0 -0.07,0.01 -0.092,0.029c-0.022,0.019 -0.037,0.044 -0.045,0.076l-0.075,-0.023c0.008,-0.028 0.021,-0.053 0.038,-0.075c0.017,-0.022 0.041,-0.04 0.07,-0.054c0.029,-0.013 0.064,-0.02 0.105,-0.02c0.062,0 0.111,0.016 0.146,0.048c0.035,0.032 0.052,0.078 0.052,0.136l0,0.221c0,0.02 0.009,0.03 0.028,0.03l0.045,0l0,0.067l-0.07,-0c-0.022,-0 -0.039,-0.006 -0.052,-0.018c-0.013,-0.012 -0.02,-0.029 -0.02,-0.05l0,-0.005l-0.013,0c-0.007,0.013 -0.017,0.026 -0.029,0.04c-0.012,0.014 -0.029,0.025 -0.051,0.034c-0.021,0.009 -0.049,0.014 -0.083,0.014Zm0.009,-0.068c0.047,0 0.085,-0.014 0.113,-0.042c0.029,-0.028 0.043,-0.066 0.043,-0.116l0,-0.011l-0.163,0c-0.031,0 -0.057,0.007 -0.077,0.02c-0.02,0.014 -0.03,0.034 -0.03,0.062c0,0.027 0.01,0.049 0.031,0.064c0.021,0.015 0.048,0.023 0.082,0.023Z" style="fill:#f4f5f7;fill-rule:nonzero;"/></g><g transform="matrix(33.333333,0,0,33.333333,514.802092,470.304623)"><path d="M0.059,-0.242l0,-0.013c0,-0.052 0.01,-0.096 0.031,-0.132c0.021,-0.037 0.049,-0.065 0.084,-0.085c0.035,-0.02 0.074,-0.03 0.116,-0.03c0.051,0 0.09,0.01 0.118,0.029c0.028,0.02 0.048,0.041 0.061,0.065l0.014,0l0,-0.081l0.076,0l0,0.602c0,0.027 -0.007,0.048 -0.022,0.063c-0.015,0.015 -0.036,0.023 -0.064,0.023l-0.332,0l0,-0.07l0.311,0c0.02,0 0.03,-0.01 0.03,-0.03l0,-0.186l-0.014,0c-0.008,0.014 -0.019,0.029 -0.034,0.043c-0.015,0.014 -0.034,0.026 -0.057,0.035c-0.023,0.009 -0.052,0.013 -0.087,0.013c-0.043,-0 -0.081,-0.01 -0.117,-0.03c-0.035,-0.02 -0.063,-0.048 -0.084,-0.085c-0.021,-0.037 -0.031,-0.081 -0.031,-0.132Zm0.252,0.177c0.05,0 0.092,-0.016 0.124,-0.048c0.032,-0.032 0.048,-0.076 0.048,-0.132l0,-0.009c0,-0.057 -0.016,-0.101 -0.048,-0.132c-0.032,-0.031 -0.073,-0.047 -0.124,-0.047c-0.05,0 -0.091,0.016 -0.123,0.047c-0.032,0.031 -0.048,0.075 -0.048,0.132l0,0.009c0,0.056 0.016,0.1 0.048,0.132c0.032,0.032 0.073,0.048 0.123,0.048Z" style="fill:#f4f5f7;fill-rule:nonzero;"/></g><g transform="matrix(33.333333,0,0,33.333333,536.210763,470.304623)"><path d="M0.307,0.014c-0.05,0 -0.093,-0.011 -0.13,-0.032c-0.037,-0.021 -0.066,-0.051 -0.087,-0.089c-0.021,-0.038 -0.031,-0.082 -0.031,-0.132l0,-0.012c0,-0.051 0.01,-0.095 0.031,-0.133c0.021,-0.038 0.049,-0.067 0.086,-0.088c0.037,-0.021 0.079,-0.031 0.126,-0.031c0.046,0 0.087,0.01 0.122,0.03c0.035,0.02 0.063,0.048 0.083,0.084c0.02,0.036 0.03,0.08 0.03,0.129l0,0.035l-0.399,0c0.002,0.053 0.019,0.094 0.05,0.124c0.032,0.03 0.072,0.044 0.12,0.044c0.042,0 0.075,-0.01 0.098,-0.029c0.023,-0.019 0.04,-0.042 0.052,-0.069l0.068,0.033c-0.01,0.021 -0.024,0.041 -0.041,0.062c-0.018,0.021 -0.041,0.038 -0.069,0.052c-0.028,0.014 -0.065,0.021 -0.108,0.021Zm-0.168,-0.303l0.317,0c-0.003,-0.046 -0.018,-0.081 -0.046,-0.106c-0.028,-0.025 -0.064,-0.038 -0.109,-0.038c-0.044,0 -0.081,0.013 -0.109,0.038c-0.029,0.025 -0.046,0.061 -0.053,0.106Z" style="fill:#f4f5f7;fill-rule:nonzero;"/></g><g transform="matrix(33.333333,0,0,33.333333,555.341112,470.304623)"><path d="M0.061,-0l0,-0.102l0.311,-0.307l0,-0.012l-0.301,0l0,-0.069l0.384,0l0,0.102l-0.312,0.307l0,0.012l0.32,0l-0,0.069l-0.402,-0Z" style="fill:#f4f5f7;fill-rule:nonzero;"/></g><g transform="matrix(33.333333,0,0,33.333333,572.702448,470.304623)"><path d="M0.126,0.014c-0.02,0 -0.036,-0.006 -0.049,-0.019c-0.013,-0.013 -0.019,-0.029 -0.019,-0.049c0,-0.02 0.006,-0.036 0.019,-0.049c0.013,-0.013 0.029,-0.019 0.049,-0.019c0.02,0 0.036,0.006 0.049,0.019c0.013,0.013 0.019,0.029 0.019,0.049c0,0.02 -0.006,0.036 -0.019,0.049c-0.013,0.013 -0.029,0.019 -0.049,0.019Z" style="fill:#f4f5f7;fill-rule:nonzero;"/></g><g transform="matrix(33.333333,0,0,33.333333,580.021068,470.304623)"></g><g transform="matrix(33.333333,0,0,33.333333,588.582404,470.304623)"><path d="M0.333,0.014c-0.083,0 -0.15,-0.024 -0.199,-0.073c-0.049,-0.048 -0.074,-0.119 -0.074,-0.211l0,-0.161c0,-0.092 0.025,-0.163 0.074,-0.211c0.049,-0.048 0.116,-0.073 0.199,-0.073c0.083,0 0.146,0.023 0.19,0.069c0.044,0.046 0.066,0.109 0.066,0.189l0,0.005l-0.083,0l0,-0.008c0,-0.053 -0.014,-0.096 -0.042,-0.129c-0.028,-0.034 -0.072,-0.05 -0.131,-0.05c-0.059,0 -0.106,0.018 -0.139,0.054c-0.034,0.036 -0.05,0.087 -0.05,0.152l0,0.165c0,0.065 0.017,0.115 0.05,0.152c0.034,0.036 0.08,0.054 0.139,0.054c0.059,0 0.103,-0.017 0.131,-0.05c0.028,-0.034 0.042,-0.077 0.042,-0.129l0,-0.016l0.083,0l0,0.013c0,0.08 -0.022,0.142 -0.066,0.189c-0.044,0.046 -0.108,0.069 -0.19,0.069Z" style="fill:#f4f5f7;fill-rule:nonzero;"/></g><g transform="matrix(33.333333,0,0,33.333333,609.978069,470.304623)"><path d="M0.309,0.014c-0.049,0 -0.093,-0.01 -0.131,-0.031c-0.038,-0.021 -0.067,-0.05 -0.088,-0.088c-0.021,-0.038 -0.032,-0.082 -0.032,-0.133l0,-0.013c0,-0.051 0.011,-0.095 0.032,-0.133c0.021,-0.038 0.05,-0.067 0.088,-0.088c0.038,-0.021 0.081,-0.031 0.131,-0.031c0.049,0 0.093,0.01 0.131,0.031c0.038,0.021 0.067,0.05 0.088,0.088c0.021,0.038 0.032,0.082 0.032,0.133l0,0.013c0,0.051 -0.011,0.095 -0.032,0.133c-0.021,0.038 -0.05,0.067 -0.088,0.088c-0.038,0.021 -0.081,0.031 -0.131,0.031Zm0,-0.071c0.052,-0 0.093,-0.017 0.124,-0.05c0.031,-0.033 0.047,-0.078 0.047,-0.134l0,-0.009c0,-0.056 -0.015,-0.101 -0.046,-0.134c-0.031,-0.033 -0.072,-0.05 -0.125,-0.05c-0.051,0 -0.093,0.017 -0.124,0.05c-0.031,0.033 -0.047,0.078 -0.047,0.134l0,0.009c0,0.056 0.016,0.101 0.047,0.134c0.031,0.033 0.073,0.05 0.124,0.05Z" style="fill:#f4f5f7;fill-rule:nonzero;"/></g><g transform="matrix(33.333333,0,0,33.333333,630.567408,470.304623)"><path d="M0.083,-0l0,-0.489l0.077,0l0,0.083l0.014,0c0.011,-0.023 0.029,-0.045 0.055,-0.064c0.026,-0.019 0.064,-0.028 0.113,-0.028c0.036,0 0.069,0.008 0.098,0.023c0.029,0.016 0.052,0.038 0.07,0.068c0.017,0.03 0.026,0.067 0.026,0.111l0,0.296l-0.079,-0l0,-0.29c0,-0.049 -0.012,-0.084 -0.036,-0.106c-0.024,-0.022 -0.057,-0.033 -0.099,-0.033c-0.047,0 -0.085,0.015 -0.115,0.046c-0.03,0.031 -0.045,0.077 -0.045,0.137l0,0.246l-0.079,-0Z" style="fill:#f4f5f7;fill-rule:nonzero;"/></g><g transform="matrix(33.333333,0,0,33.333333,651.006072,470.304623)"><path d="M0.083,-0l0,-0.489l0.077,0l0,0.083l0.014,0c0.011,-0.023 0.029,-0.045 0.055,-0.064c0.026,-0.019 0.064,-0.028 0.113,-0.028c0.036,0 0.069,0.008 0.098,0.023c0.029,0.016 0.052,0.038 0.07,0.068c0.017,0.03 0.026,0.067 0.026,0.111l0,0.296l-0.079,-0l0,-0.29c0,-0.049 -0.012,-0.084 -0.036,-0.106c-0.024,-0.022 -0.057,-0.033 -0.099,-0.033c-0.047,0 -0.085,0.015 -0.115,0.046c-0.03,0.031 -0.045,0.077 -0.045,0.137l0,0.246l-0.079,-0Z" style="fill:#f4f5f7;fill-rule:nonzero;"/></g><g transform="matrix(33.333333,0,0,33.333333,671.444736,470.304623)"><path d="M0.307,0.014c-0.05,0 -0.093,-0.011 -0.13,-0.032c-0.037,-0.021 -0.066,-0.051 -0.087,-0.089c-0.021,-0.038 -0.031,-0.082 -0.031,-0.132l0,-0.012c0,-0.051 0.01,-0.095 0.031,-0.133c0.021,-0.038 0.049,-0.067 0.086,-0.088c0.037,-0.021 0.079,-0.031 0.126,-0.031c0.046,0 0.087,0.01 0.122,0.03c0.035,0.02 0.063,0.048 0.083,0.084c0.02,0.036 0.03,0.08 0.03,0.129l0,0.035l-0.399,0c0.002,0.053 0.019,0.094 0.05,0.124c0.032,0.03 0.072,0.044 0.12,0.044c0.042,0 0.075,-0.01 0.098,-0.029c0.023,-0.019 0.04,-0.042 0.052,-0.069l0.068,0.033c-0.01,0.021 -0.024,0.041 -0.041,0.062c-0.018,0.021 -0.041,0.038 -0.069,0.052c-0.028,0.014 -0.065,0.021 -0.108,0.021Zm-0.168,-0.303l0.317,0c-0.003,-0.046 -0.018,-0.081 -0.046,-0.106c-0.028,-0.025 -0.064,-0.038 -0.109,-0.038c-0.044,0 -0.081,0.013 -0.109,0.038c-0.029,0.025 -0.046,0.061 -0.053,0.106Z" style="fill:#f4f5f7;fill-rule:nonzero;"/></g><g transform="matrix(33.333333,0,0,33.333333,691.175084,470.304623)"><path d="M0.308,0.014c-0.048,0 -0.09,-0.01 -0.128,-0.03c-0.038,-0.02 -0.067,-0.049 -0.089,-0.087c-0.022,-0.038 -0.033,-0.083 -0.033,-0.135l0,-0.011c0,-0.053 0.011,-0.098 0.033,-0.136c0.022,-0.038 0.051,-0.067 0.089,-0.087c0.038,-0.02 0.08,-0.03 0.128,-0.03c0.047,0 0.087,0.009 0.12,0.026c0.033,0.017 0.059,0.04 0.078,0.069c0.019,0.029 0.031,0.059 0.037,0.092l-0.077,0.016c-0.003,-0.024 -0.011,-0.046 -0.023,-0.066c-0.012,-0.02 -0.029,-0.036 -0.051,-0.048c-0.022,-0.012 -0.049,-0.018 -0.082,-0.018c-0.032,0 -0.062,0.007 -0.087,0.022c-0.026,0.015 -0.046,0.036 -0.061,0.063c-0.015,0.027 -0.022,0.06 -0.022,0.098l0,0.009c0,0.038 0.007,0.071 0.022,0.098c0.015,0.027 0.035,0.048 0.061,0.063c0.026,0.015 0.055,0.022 0.087,0.022c0.049,-0 0.086,-0.013 0.112,-0.038c0.026,-0.025 0.042,-0.057 0.048,-0.095l0.077,0.017c-0.007,0.033 -0.02,0.063 -0.04,0.092c-0.02,0.029 -0.046,0.051 -0.079,0.069c-0.033,0.017 -0.073,0.026 -0.12,0.026Z" style="fill:#f4f5f7;fill-rule:nonzero;"/></g><g transform="matrix(33.333333,0,0,33.333333,710.444097,470.304623)"><path d="M0.263,-0c-0.028,-0 -0.049,-0.008 -0.065,-0.023c-0.015,-0.015 -0.023,-0.036 -0.023,-0.063l0,-0.334l-0.147,0l0,-0.069l0.147,0l0,-0.174l0.079,0l0,0.174l0.16,0l0,0.069l-0.16,0l0,0.322c0,0.02 0.01,0.03 0.029,0.03l0.109,0l0,0.069l-0.13,-0Z" style="fill:#f4f5f7;fill-rule:nonzero;"/></g><g transform="matrix(33.333333,0,0,33.333333,725.186101,470.304623)"><path d="M0.307,0.014c-0.05,0 -0.093,-0.011 -0.13,-0.032c-0.037,-0.021 -0.066,-0.051 -0.087,-0.089c-0.021,-0.038 -0.031,-0.082 -0.031,-0.132l0,-0.012c0,-0.051 0.01,-0.095 0.031,-0.133c0.021,-0.038 0.049,-0.067 0.086,-0.088c0.037,-0.021 0.079,-0.031 0.126,-0.031c0.046,0 0.087,0.01 0.122,0.03c0.035,0.02 0.063,0.048 0.083,0.084c0.02,0.036 0.03,0.08 0.03,0.129l0,0.035l-0.399,0c0.002,0.053 0.019,0.094 0.05,0.124c0.032,0.03 0.072,0.044 0.12,0.044c0.042,0 0.075,-0.01 0.098,-0.029c0.023,-0.019 0.04,-0.042 0.052,-0.069l0.068,0.033c-0.01,0.021 -0.024,0.041 -0.041,0.062c-0.018,0.021 -0.041,0.038 -0.069,0.052c-0.028,0.014 -0.065,0.021 -0.108,0.021Zm-0.168,-0.303l0.317,0c-0.003,-0.046 -0.018,-0.081 -0.046,-0.106c-0.028,-0.025 -0.064,-0.038 -0.109,-0.038c-0.044,0 -0.081,0.013 -0.109,0.038c-0.029,0.025 -0.046,0.061 -0.053,0.106Z" style="fill:#f4f5f7;fill-rule:nonzero;"/></g><g transform="matrix(33.333333,0,0,33.333333,744.31645,470.304623)"><path d="M0.061,-0l0,-0.102l0.311,-0.307l0,-0.012l-0.301,0l0,-0.069l0.384,0l0,0.102l-0.312,0.307l0,0.012l0.32,0l-0,0.069l-0.402,-0Z" style="fill:#f4f5f7;fill-rule:nonzero;"/></g><g transform="matrix(33.333333,0,0,33.333333,761.677786,470.304623)"><path d="M0.126,0.014c-0.02,0 -0.036,-0.006 -0.049,-0.019c-0.013,-0.013 -0.019,-0.029 -0.019,-0.049c0,-0.02 0.006,-0.036 0.019,-0.049c0.013,-0.013 0.029,-0.019 0.049,-0.019c0.02,0 0.036,0.006 0.049,0.019c0.013,0.013 0.019,0.029 0.019,0.049c0,0.02 -0.006,0.036 -0.019,0.049c-0.013,0.013 -0.029,0.019 -0.049,0.019Z" style="fill:#f4f5f7;fill-rule:nonzero;"/></g><g transform="matrix(33.333333,0,0,33.333333,770.096406,470.304623)"></g></g><g><g><path d="M570.514,198.561l-113.84,0c-4.697,0 -8.177,-3.813 -7.766,-8.511l3.475,-39.716c0.411,-4.697 4.558,-8.511 9.255,-8.511l113.84,0c0.459,0 0.906,0.036 1.339,0.106c4,0.647 6.797,4.166 6.426,8.404l-0.113,1.291c-0.415,0.534 -0.664,1.204 -0.669,1.932c-0.004,0.546 0.13,1.06 0.368,1.511l-0.603,6.887c-0.912,0.529 -1.538,1.497 -1.587,2.62c-0.045,1.028 0.402,1.964 1.132,2.579l-0.577,6.595c-1.133,0.503 -1.912,1.645 -1.894,2.958c0.015,1.086 0.571,2.037 1.408,2.601l-0.94,10.74c-0.411,4.697 -4.558,8.511 -9.255,8.511Z" style="fill:#f4f5f7;"/><path d="M555.866,382.856c-0.486,0.084 -0.983,0.128 -1.486,0.128l-113.84,0c-4.697,0 -8.177,-3.813 -7.766,-8.511l3.475,-39.716c0.411,-4.697 4.558,-8.511 9.255,-8.511l113.84,0c4.697,0 8.177,3.813 7.766,8.511l-3.475,39.716c-0.367,4.194 -3.713,7.684 -7.769,8.383Z" style="fill:#f4f5f7;"/><path d="M564.559,254.997c3.468,-0.953 6.224,-4.065 6.546,-7.753l3.595,-41.088c0.307,-3.505 -1.676,-6.49 -4.708,-7.595l-51.364,0c2.637,-30.138 28.346,-54.819 58.19,-56.63c1.164,-0.071 2.335,-0.106 3.511,-0.106c31.314,0 54.513,25.423 51.773,56.737c-2.74,31.314 -30.387,56.737 -61.701,56.737c-1.981,0 -3.93,-0.102 -5.842,-0.3Zm16.15,-75.687c0.52,0.351 1.149,0.552 1.824,0.543c0.424,0.023 0.846,0.067 1.265,0.133c6.736,1.064 11.335,7.387 10.271,14.124c-0.229,0.96 0.003,1.973 0.626,2.739c0.439,0.544 1.046,0.927 1.724,1.093c1.711,0.416 3.435,-0.633 3.851,-2.344c0.183,-0.979 0.288,-1.972 0.313,-2.968c0.259,-10.317 -7.894,-18.891 -18.211,-19.15c-0.419,0.015 -0.816,0.111 -1.178,0.271c-1.133,0.503 -1.912,1.645 -1.894,2.958c0.015,1.086 0.571,2.037 1.408,2.601Zm1.063,-12.155c0.519,0.438 1.182,0.713 1.913,0.745c6.66,0.556 12.782,3.881 16.874,9.166c4.313,5.104 6.287,11.782 5.443,18.41c-0.188,0.931 0.051,1.897 0.649,2.634c0.463,0.57 1.108,0.963 1.828,1.112c1.724,0.358 3.411,-0.75 3.769,-2.474c1.216,-8.495 -1.231,-17.107 -6.733,-23.693c-5.293,-6.755 -13.206,-10.944 -21.768,-11.527c-0.553,0.013 -1.072,0.167 -1.521,0.428c-0.912,0.529 -1.538,1.497 -1.587,2.62c-0.045,1.028 0.402,1.964 1.132,2.579Zm1.057,-12.086c0.531,1.004 1.583,1.691 2.798,1.7c0.562,0.005 13.81,0.327 24.019,12.944c10.194,12.597 7.764,25.603 7.646,26.186c-0.191,0.935 0.047,1.906 0.647,2.646c0.463,0.572 1.11,0.967 1.831,1.117c1.724,0.358 3.412,-0.75 3.769,-2.474c0.138,-0.664 3.238,-16.44 -8.937,-31.486c-12.175,-15.046 -28.251,-15.305 -28.93,-15.31c-1.032,-0.007 -1.954,0.477 -2.542,1.234c-0.415,0.534 -0.664,1.204 -0.669,1.932c-0.004,0.546 0.13,1.06 0.368,1.511Z" style="fill:#f4f5f7;"/><path d="M569.16,269.482c31.314,0 54.513,25.423 51.773,56.737c-2.74,31.314 -30.387,56.737 -61.701,56.737c-1.133,0 -2.256,-0.033 -3.367,-0.099c-29.583,-1.748 -51.033,-26.441 -48.409,-56.609l49.458,0c4.116,-0.39 7.614,-3.833 7.98,-8.016l3.595,-41.088c0.294,-3.357 -1.512,-6.236 -4.329,-7.445c1.654,-0.143 3.321,-0.216 4.999,-0.216Z" style="fill:#f4f5f7;"/><path d="M447.427,206.989l-9.696,110.83c-0.406,4.644 -4.506,8.414 -9.15,8.414l-39.909,0c-4.644,0 -8.084,-3.77 -7.678,-8.414l9.696,-110.83c0.406,-4.644 4.506,-8.414 9.15,-8.414l39.909,0c4.644,0 8.084,3.77 7.678,8.414Z" style="fill:#f4f5f7;"/><path d="M528.149,279.061c-0.334,3.82 -3.707,6.921 -7.527,6.921l-32.828,0c-3.82,0 -6.65,-3.101 -6.316,-6.921l2.912,-33.286c0.334,-3.82 3.707,-6.921 7.527,-6.921l32.828,0c3.82,0 6.65,3.101 6.316,6.921l-2.912,33.286Z" style="fill:#f4f5f7;"/><path d="M571.105,247.245l-2.616,29.898c0.294,-3.357 -1.512,-6.236 -4.329,-7.445c-0.913,-0.392 -1.932,-0.608 -3.02,-0.608l-24.159,0c-4.445,0 -8.369,3.608 -8.758,8.053l2.616,-29.898c-0.389,4.445 2.904,8.053 7.348,8.053l24.159,0c0.757,0 1.499,-0.105 2.211,-0.3c3.468,-0.953 6.224,-4.065 6.546,-7.753Z" style="fill:#f4f5f7;"/></g></g></g></svg>