<?xml version="1.0" encoding="UTF-8" standalone="no"?><!DOCTYPE svg PUBLIC "-//W3C//DTD SVG 1.1//EN" "http://www.w3.org/Graphics/SVG/1.1/DTD/svg11.dtd"><svg width="100%" height="100%" viewBox="0 0 7374 1020" version="1.1" xmlns="http://www.w3.org/2000/svg" xmlns:xlink="http://www.w3.org/1999/xlink" xml:space="preserve" xmlns:serif="http://www.serif.com/" style="fill-rule:evenodd;clip-rule:evenodd;stroke-linejoin:round;stroke-miterlimit:2;"><g><g><g><path d="M870.721,238.838l-479.217,0c-19.773,0 -32.12,-16.053 -27.555,-35.826l38.598,-167.187c4.565,-19.773 24.324,-35.826 44.097,-35.826l479.217,0c1.932,0 3.793,0.153 5.574,0.448c16.45,2.724 26.099,17.537 21.98,35.377l-1.255,5.435c-2.069,2.248 -3.522,5.067 -3.984,8.134c-0.346,2.297 -0.095,4.464 0.637,6.362l-6.693,28.992c-4.158,2.227 -7.378,6.303 -8.263,11.027c-0.81,4.328 0.507,8.267 3.21,10.858l-6.41,27.763c-5.071,2.118 -9.042,6.925 -9.759,12.454c-0.592,4.57 1.174,8.575 4.356,10.951l-10.438,45.21c-4.565,19.773 -24.324,35.826 -44.097,35.826Z" style="fill:#111827;"/><path d="M697.821,1014.646c-2.098,0.353 -4.215,0.537 -6.333,0.537l-479.217,0c-19.773,0 -32.12,-16.053 -27.555,-35.826l38.598,-167.187c4.565,-19.773 24.324,-35.826 44.097,-35.826l479.217,0c19.773,0 32.12,16.053 27.555,35.826l-38.598,167.187c-4.076,17.656 -20.267,32.345 -37.764,35.289Z" style="fill:#111827;"/><path d="M811.587,476.412c15.173,-4.012 28.654,-17.112 32.237,-32.635l39.932,-172.965c3.406,-14.755 -3.139,-27.32 -15.235,-31.974l-216.222,0c29.29,-126.869 152.411,-230.767 279.136,-238.39c4.944,-0.297 9.893,-0.448 14.842,-0.448c131.818,0 214.131,107.02 183.698,238.838c-30.433,131.818 -162.16,238.838 -293.978,238.838c-8.34,0 -16.483,-0.428 -24.411,-1.265Zm113.669,-318.61c1.978,1.477 4.504,2.323 7.35,2.284c1.77,0.096 3.521,0.283 5.246,0.562c27.715,4.477 43.258,31.097 34.714,59.454c-1.542,4.043 -1.18,8.305 0.98,11.531c1.521,2.288 3.842,3.904 6.6,4.599c6.951,1.751 14.844,-2.666 17.628,-9.869c1.363,-4.122 2.402,-8.301 3.109,-12.495c7.319,-43.43 -21.829,-79.522 -65.102,-80.613c-1.772,0.064 -3.503,0.466 -5.121,1.142c-5.071,2.118 -9.042,6.925 -9.759,12.454c-0.592,4.57 1.174,8.575 4.356,10.951Zm11.813,-51.168c1.922,1.842 4.545,3.003 7.602,3.138c27.702,2.341 51.465,16.338 65.501,38.583c15.073,21.484 19.354,49.597 11.802,77.5c-1.351,3.918 -0.931,7.984 1.144,11.086c1.604,2.401 4.084,4.054 7.022,4.683c7.041,1.505 14.813,-3.157 17.36,-10.414c10.248,-35.761 5.144,-72.015 -14.041,-99.74c-18.207,-28.434 -48.985,-46.071 -84.676,-48.523c-2.337,0.056 -4.613,0.704 -6.661,1.801c-4.158,2.227 -7.378,6.303 -8.263,11.027c-0.81,4.328 0.507,8.267 3.21,10.858Zm11.746,-50.877c1.629,4.226 5.641,7.119 10.752,7.156c2.361,0.02 57.936,1.378 93.297,54.487c35.309,53.03 17.229,107.777 16.382,110.231c-1.368,3.934 -0.954,8.022 1.128,11.141c1.604,2.41 4.088,4.07 7.033,4.7c7.041,1.505 14.814,-3.156 17.36,-10.414c0.982,-2.794 23.554,-69.204 -18.617,-132.542c-42.171,-63.336 -109.688,-64.43 -112.543,-64.448c-4.342,-0.031 -8.512,2.007 -11.445,5.193c-2.069,2.248 -3.522,5.067 -3.984,8.134c-0.346,2.297 -0.095,4.464 0.637,6.362Z" style="fill:#111827;"/><path d="M822.213,537.386c131.818,0 214.131,107.02 183.698,238.838c-30.433,131.818 -162.16,238.838 -293.978,238.838c-4.77,0 -9.475,-0.14 -14.112,-0.416c-123.477,-7.359 -198.87,-111.307 -169.614,-238.301l208.2,0c17.562,-1.643 34.364,-16.135 38.429,-33.744l39.932,-172.965c3.262,-14.13 -2.603,-26.252 -13.728,-31.34c7.047,-0.602 14.11,-0.909 21.173,-0.909Z" style="fill:#111827;"/><path d="M347.487,274.318l-107.711,466.548c-4.513,19.548 -24.048,35.419 -43.596,35.419l-168,0c-19.548,0 -31.755,-15.871 -27.242,-35.419l107.711,-466.548c4.513,-19.548 24.048,-35.419 43.596,-35.419l168,0c19.548,0 31.755,15.871 27.242,35.419Z" style="fill:#111827;"/><path d="M643.795,577.711c-3.712,16.08 -19.781,29.135 -35.862,29.135l-138.193,0c-16.08,0 -26.121,-13.055 -22.409,-29.135l32.349,-140.119c3.712,-16.08 19.781,-29.135 35.862,-29.135l138.193,0c16.08,0 26.121,13.055 22.409,29.135l-32.349,140.119Z" style="fill:#111827;"/><path d="M843.824,443.777l-29.057,125.858c3.262,-14.13 -2.603,-26.252 -13.728,-31.34c-3.606,-1.649 -7.765,-2.56 -12.345,-2.56l-101.699,0c-18.71,0 -37.406,15.19 -41.726,33.9l29.057,-125.858c-4.319,18.71 7.364,33.9 26.073,33.9l101.699,0c3.187,0 6.374,-0.441 9.489,-1.265c15.173,-4.012 28.654,-17.112 32.237,-32.635Z" style="fill:#111827;"/></g></g><path d="M3881.653,217.181c7.82,-26.406 34.641,-47.32 61.48,-47.32l743.074,0c21.173,0 36.325,13.016 39.632,31.476c0.862,5.863 0.609,12.217 -0.923,18.852l-62.89,272.406c-5.644,24.447 -26.874,45.078 -50.771,51.398c-4.906,1.297 -9.925,1.992 -14.944,1.992l-160.168,0c-26.709,0 -44.326,-19.655 -42.323,-45.277l4.122,-17.852c5.847,-25.325 -9.967,-45.886 -35.292,-45.886l-217.644,0c-25.325,0 -50.632,20.561 -56.479,45.886l-50.947,220.677c-5.847,25.325 9.967,45.886 35.292,45.886l217.644,0c25.325,0 50.632,-20.561 56.479,-45.886l4.809,-20.831c9.828,-25.623 36.52,-45.277 63.229,-45.277l160.168,0c7.213,0 13.763,1.434 19.443,4.031c17.522,8.014 26.758,27.105 21.62,49.358l-62.89,272.406c-6.303,27.3 -32.041,49.842 -59.225,53.009c-1.121,0.072 -2.243,0.109 -3.366,0.109l-743.074,0c-26.839,0 -44.003,-20.914 -39.631,-47.32c1.07,-2.781 1.949,-5.63 2.619,-8.53l169.636,-734.776c0.67,-2.9 1.105,-5.749 1.32,-8.53Z" style="fill:#111827;"/><g><path d="M1391.723,1019.103c-65.393,0 -115.16,-14.185 -149.299,-42.554c-34.139,-28.369 -51.209,-69.481 -51.209,-123.334c0,-17.31 3.366,-41.833 10.098,-73.568l113.958,-494.779c2.885,-11.54 6.732,-19.474 11.54,-23.801c4.808,-4.328 12.983,-6.491 24.523,-6.491l187.525,0c25.003,0 34.62,11.059 28.85,33.178l-99.533,437.078c-2.885,11.54 -4.328,21.638 -4.328,30.293c0,15.387 4.808,26.446 14.425,33.178c9.617,6.732 24.523,10.098 44.718,10.098l129.825,0c25.003,0 42.313,-4.087 51.93,-12.261c9.617,-8.174 17.791,-25.725 24.523,-52.651l103.86,-448.618c1.923,-10.578 5.53,-18.272 10.819,-23.08c5.289,-4.808 13.704,-7.213 25.244,-7.213l187.525,0c25.003,0 34.62,11.059 28.85,33.178l-158.675,692.401c-2.885,11.54 -6.972,19.714 -12.261,24.523c-5.289,4.808 -13.704,7.213 -25.244,7.213l-187.525,0c-25.003,0 -34.62,-11.54 -28.85,-34.62l14.425,-64.913l-11.54,0c-20.195,35.582 -45.198,62.268 -75.01,80.059c-29.812,17.791 -69.24,26.686 -118.285,26.686l-90.878,0Z" style="fill:#111827;fill-rule:nonzero;"/><path d="M2091.337,1011.891c-24.042,0 -33.658,-11.54 -28.85,-34.62l31.735,-137.038c2.885,-11.54 6.972,-20.916 12.261,-28.129c5.289,-7.213 13.223,-15.146 23.801,-23.801l399.573,-320.236l1.443,-11.54l-297.156,0c-23.08,0 -32.697,-11.54 -28.85,-34.62l33.178,-137.038c1.923,-10.578 5.53,-18.272 10.819,-23.08c5.289,-4.808 13.704,-7.213 25.244,-7.213l604.409,0c23.08,0 32.697,11.059 28.85,33.178l-31.735,137.038c-3.847,19.233 -15.387,36.543 -34.62,51.93l-399.573,320.236l-2.885,12.983l311.581,0c25.003,0 34.62,11.059 28.85,33.178l-31.735,137.038c-1.923,11.54 -5.53,19.714 -10.819,24.523c-5.289,4.808 -13.704,7.213 -25.244,7.213l-620.276,0Z" style="fill:#111827;fill-rule:nonzero;"/><path d="M2857.306,1011.891c-24.042,0 -33.658,-11.54 -28.85,-34.62l31.735,-137.038c2.885,-11.54 6.972,-20.916 12.261,-28.129c5.289,-7.213 13.223,-15.146 23.801,-23.801l399.573,-320.236l1.443,-11.54l-297.156,0c-23.08,0 -32.697,-11.54 -28.85,-34.62l33.178,-137.038c1.923,-10.578 5.53,-18.272 10.819,-23.08c5.289,-4.808 13.704,-7.213 25.244,-7.213l604.409,0c23.08,0 32.697,11.059 28.85,33.178l-31.735,137.038c-3.847,19.233 -15.387,36.543 -34.62,51.93l-399.573,320.236l-2.885,12.983l311.581,0c25.003,0 34.62,11.059 28.85,33.178l-31.735,137.038c-1.923,11.54 -5.53,19.714 -10.819,24.523c-5.289,4.808 -13.704,7.213 -25.244,7.213l-620.276,0Z" style="fill:#111827;fill-rule:nonzero;"/></g><g><path d="M5433.198,247.364c65.393,0 114.919,13.944 148.578,41.833c33.658,27.888 50.488,68.759 50.488,122.613c0,23.08 -2.885,47.603 -8.655,73.568l-113.958,494.779c-2.885,11.54 -6.972,19.714 -12.261,24.523c-5.289,4.808 -13.704,7.213 -25.244,7.213l-187.525,0c-23.08,0 -32.697,-11.54 -28.85,-34.62l15.868,-64.913l-12.983,0c-18.272,32.697 -41.833,58.662 -70.683,77.895c-28.85,19.233 -69.24,28.85 -121.17,28.85l-126.94,0c-53.853,0 -95.446,-12.502 -124.777,-37.505c-29.331,-25.003 -43.996,-60.104 -43.996,-105.303c0,-15.387 2.404,-35.101 7.213,-59.143l17.31,-72.125c10.578,-43.275 23.08,-77.174 37.505,-101.696c14.425,-24.523 34.86,-42.554 61.306,-54.094c26.446,-11.54 62.268,-17.31 107.466,-17.31l349.086,0l20.195,-87.993c2.885,-11.54 4.328,-21.638 4.328,-30.293c0,-15.387 -5.049,-26.686 -15.146,-33.899c-10.098,-7.213 -25.244,-10.819 -45.439,-10.819l-119.728,0c-19.233,0 -32.697,3.847 -40.39,11.54c-7.693,7.693 -14.425,21.638 -20.195,41.833l-4.328,17.31c-2.885,11.54 -6.732,19.474 -11.54,23.801c-4.808,4.328 -12.983,6.491 -24.523,6.491l-193.295,0c-25.003,0 -34.62,-11.059 -28.85,-33.178l11.54,-49.045c16.348,-65.393 40.39,-111.794 72.125,-139.202c31.735,-27.408 81.742,-41.111 150.02,-41.111l327.448,0Zm-209.163,601.524c25.003,0 42.554,-4.328 52.651,-12.983c10.098,-8.655 18.031,-25.965 23.801,-51.93l15.868,-64.913l-217.818,0c-16.348,0 -28.129,3.125 -35.341,9.376c-7.213,6.251 -13.223,18.993 -18.031,38.226l-4.328,15.868c-2.885,9.617 -4.328,18.272 -4.328,25.965c0,26.927 18.753,40.39 56.258,40.39l131.268,0Z" style="fill:#111827;fill-rule:nonzero;"/><path d="M5724.583,1011.891c-25.003,0 -34.62,-11.54 -28.85,-34.62l160.118,-692.401c1.923,-10.578 5.53,-18.272 10.819,-23.08c5.289,-4.808 13.704,-7.213 25.244,-7.213l187.525,0c23.08,0 32.697,11.059 28.85,33.178l-14.425,64.913l12.983,0c18.272,-34.62 42.554,-60.826 72.846,-78.616c30.293,-17.791 69.961,-26.686 119.006,-26.686l132.71,0c23.08,0 32.697,11.059 28.85,33.178l-40.39,173.1c-2.885,11.54 -6.972,19.714 -12.261,24.523c-5.289,4.808 -13.223,7.213 -23.801,7.213l-259.651,0c-25.003,0 -42.313,4.087 -51.93,12.261c-9.617,8.174 -17.791,25.725 -24.523,52.651l-99.533,429.866c-1.923,11.54 -5.53,19.714 -10.819,24.523c-5.289,4.808 -13.704,7.213 -25.244,7.213l-187.525,0Z" style="fill:#111827;fill-rule:nonzero;"/><path d="M6618.935,1019.103c-65.393,0 -115.16,-14.185 -149.299,-42.554c-34.139,-28.369 -51.209,-69.481 -51.209,-123.334c0,-17.31 3.366,-41.833 10.098,-73.568l69.24,-300.041c13.463,-56.738 30.293,-101.216 50.488,-133.432c20.195,-32.216 47.362,-55.536 81.501,-69.961c34.139,-14.425 79.097,-21.638 134.874,-21.638l302.926,0l50.488,-222.145c2.885,-11.54 6.972,-19.474 12.261,-23.801c5.289,-4.328 13.704,-6.491 25.244,-6.491l187.525,0c25.003,0 34.62,11.059 28.85,33.178l-217.818,944.839c-2.885,11.54 -6.972,19.714 -12.261,24.523c-5.289,4.808 -13.704,7.213 -25.244,7.213l-187.525,0c-23.08,0 -32.697,-11.54 -28.85,-34.62l15.868,-64.913l-12.983,0c-19.233,35.582 -43.756,62.268 -73.568,80.059c-29.812,17.791 -69.24,26.686 -118.285,26.686l-92.32,0Zm253.881,-191.853c25.003,0 42.554,-4.328 52.651,-12.983c10.098,-8.655 18.512,-25.965 25.244,-51.93l73.568,-317.351l-203.393,0c-25.003,0 -42.313,4.087 -51.93,12.261c-9.617,8.174 -17.791,25.725 -24.523,52.651l-56.258,243.783c-2.885,11.54 -4.328,21.638 -4.328,30.293c0,15.387 4.808,26.446 14.425,33.178c9.617,6.732 24.523,10.098 44.718,10.098l129.825,0Z" style="fill:#111827;fill-rule:nonzero;"/></g></g></svg>